<svg width="43" height="43" viewBox="0 0 43 43" fill="none" xmlns="http://www.w3.org/2000/svg">
<g id="Frame">
<path id="Vector" d="M21.5 20.3975C20.0219 20.3975 18.7566 19.8712 17.7039 18.8186C16.6513 17.766 16.125 16.5006 16.125 15.0225C16.125 13.5443 16.6513 12.279 17.7039 11.2264C18.7566 10.1738 20.0219 9.64746 21.5 9.64746C22.9782 9.64746 24.2435 10.1738 25.2961 11.2264C26.3487 12.279 26.875 13.5443 26.875 15.0225C26.875 16.5006 26.3487 17.766 25.2961 18.8186C24.2435 19.8712 22.9782 20.3975 21.5 20.3975ZM8.95837 33.353V30.4035C8.95837 29.6638 9.17367 28.9718 9.60427 28.3274C10.0352 27.6833 10.6146 27.1831 11.3426 26.8269C13.0334 26.0161 14.7252 25.408 16.418 25.0025C18.1108 24.5973 19.8048 24.3947 21.5 24.3947C23.1953 24.3947 24.8893 24.5973 26.5821 25.0025C28.2749 25.408 29.9667 26.0161 31.6574 26.8269C32.3855 27.1831 32.9649 27.6833 33.3958 28.3274C33.8264 28.9718 34.0417 29.6638 34.0417 30.4035V33.353H8.95837ZM10.75 31.5613H32.25V30.4035C32.25 30.006 32.1219 29.6328 31.8657 29.2837C31.6098 28.9346 31.2555 28.6394 30.8028 28.3981C29.3283 27.6839 27.8079 27.1367 26.2417 26.7565C24.6755 26.3764 23.0949 26.1863 21.5 26.1863C19.9052 26.1863 18.3246 26.3764 16.7584 26.7565C15.1922 27.1367 13.6718 27.6839 12.1973 28.3981C11.7446 28.6394 11.3903 28.9346 11.1344 29.2837C10.8781 29.6328 10.75 30.006 10.75 30.4035V31.5613ZM21.5 18.6058C22.4855 18.6058 23.329 18.2549 24.0308 17.5532C24.7325 16.8515 25.0834 16.0079 25.0834 15.0225C25.0834 14.037 24.7325 13.1935 24.0308 12.4917C23.329 11.79 22.4855 11.4391 21.5 11.4391C20.5146 11.4391 19.671 11.79 18.9693 12.4917C18.2676 13.1935 17.9167 14.037 17.9167 15.0225C17.9167 16.0079 18.2676 16.8515 18.9693 17.5532C19.671 18.2549 20.5146 18.6058 21.5 18.6058Z" fill="#E3E3E3"/>
</g>
</svg>
