<svg width="224" height="208" viewBox="0 0 224 208" fill="none" xmlns="http://www.w3.org/2000/svg">
<g clip-path="url(#clip0_342_369)">
<path d="M222.588 129.056C221.944 126.661 220.302 121.728 216.544 115.602C214.892 112.909 213.023 110.311 210.971 107.853C210.977 107.694 210.983 107.533 210.988 107.374C219 102.755 224 94.4376 224 85.2883C224 78.3401 221.159 71.8253 216 66.9446C211.336 62.531 205.277 59.9415 198.786 59.5558C197.393 57.2126 195.889 54.9312 194.289 52.7357C194.074 49.0695 193.674 45.3934 193.097 41.7793C192.243 36.4327 190.983 31.1001 189.351 25.9295L188.094 21.9466L183.926 21.9987C179.489 22.0535 175.03 22.4983 170.671 23.3202C167.692 23.8831 164.726 24.629 161.825 25.5438C158.961 24.1519 156.009 22.912 153.021 21.8467C150.393 20.9108 147.697 20.0959 144.977 19.4147C142.949 16.4367 140.66 13.6346 138.153 11.0577C134.737 7.55056 130.905 4.44871 126.759 1.83803L123.84 0L120.882 1.77611C116.843 4.20383 113.109 7.12694 109.785 10.468C107.066 13.1998 104.624 16.2073 102.506 19.4288C99.5303 20.1761 96.5797 21.0853 93.7092 22.1408C91.1435 23.0852 88.6016 24.159 86.1257 25.3482C83.4055 24.4081 80.615 23.6565 77.7979 23.1077C73.9528 22.3604 70.015 21.9804 66.094 21.9804C65.5927 21.9804 65.0829 21.9874 64.5815 22.0001L60.8768 22.0901L59.5034 25.5396C57.8926 29.5788 56.6638 33.791 55.8507 38.0582C55.1358 41.8117 54.7356 45.6341 54.657 49.4622C50.7515 44.7221 46.28 40.4367 41.3086 36.6705L38.1684 34.2921L34.8654 36.4383C30.5372 39.2502 26.4435 42.5365 22.6953 46.2069C22.1813 46.7093 21.7768 47.2934 21.4932 47.9239C20.8682 48.2293 20.2995 48.6501 19.822 49.1694C16.1398 53.172 11.3902 60.04 8.00294 66.2592C7.77403 66.6786 7.6041 67.1162 7.49035 67.5638C7.18701 67.917 6.92299 68.3125 6.70953 68.7446C6.28401 69.5989 5.87113 70.4728 5.48072 71.3412C2.03584 79.0015 1.22833 84.3327 0.465771 91.0261L0.191922 93.4637L0.225626 93.5045C-0.358585 100.858 0.191922 108.41 1.81816 115.367L2.93884 120.159L7.82739 119.686C16.2507 118.871 24.5364 117.174 32.5791 114.619C31.106 117.041 29.842 119.511 28.6132 121.918C27.5108 124.074 26.4688 126.112 25.3144 128.053C24.4297 129.539 24.219 131.315 24.7386 132.928C25.1669 134.261 26.0657 135.402 27.2707 136.142L27.2763 136.145C28.7354 137.042 30.1749 138.097 31.6986 139.215C34.2587 141.093 36.9059 143.034 40.0531 144.527C42.5725 145.722 45.3517 147.051 48.5101 148.568C49.326 149.957 50.1855 151.331 51.0717 152.668C51.9395 153.974 52.8482 155.266 53.7877 156.528C53.8649 160.018 54.1121 163.507 54.5264 166.923C55.6793 176.445 57.4586 179.985 58.415 181.886C58.4515 181.958 58.4937 182.044 58.5316 182.118C59.0863 184.481 60.5932 185.702 61.4793 186.231C62.4497 186.813 63.5718 187.12 64.722 187.12C65.0899 187.12 65.4508 187.091 65.8146 187.03C65.8623 187.033 65.9129 187.034 65.9564 187.037C66.3707 187.058 66.9366 187.088 67.6739 187.088C70.9938 187.088 75.2939 186.445 80.8187 185.122C82.8171 184.643 84.8323 184.108 86.8335 183.527C89.0917 184.586 91.4047 185.55 93.7359 186.407C96.1584 187.296 98.6427 188.084 101.144 188.756C102.894 190.958 104.687 193.168 106.49 195.343C107.015 195.977 109.484 198.659 119.184 206.538C120.673 207.747 122.194 208 123.208 208C123.407 208 123.607 207.99 123.803 207.972C125.171 207.838 126.455 207.248 127.45 206.328C131.505 203.398 135.301 200.084 138.743 196.471C140.945 194.158 143.027 191.697 144.95 189.131C148.134 188.336 151.284 187.355 154.344 186.208C156.481 185.407 158.604 184.514 160.681 183.541C163.001 184.248 165.347 184.92 167.677 185.548C168.394 185.742 174.844 187.437 180.264 187.437C181.796 187.437 183.119 187.306 184.311 187.037H184.31C184.398 187.017 184.487 186.996 184.578 186.977L187.262 186.364L188.43 183.872C188.465 183.795 188.519 183.681 188.582 183.545C189.919 180.659 193.049 173.898 193.945 165.442C194.267 162.401 194.286 159.301 194.003 156.193C194.854 155.038 195.679 153.858 196.47 152.668C197.328 151.374 198.158 150.049 198.949 148.71C201.485 147.638 204.014 146.515 206.491 145.361C213.878 141.917 218.009 139.481 221.498 134.947C221.65 134.75 221.771 134.587 221.847 134.484L223.421 132.347L222.775 129.768C222.733 129.605 222.67 129.357 222.588 129.056ZM217.051 131.508C214.287 135.099 210.91 137.092 204.122 140.256C201.603 141.43 198.548 142.796 195.032 144.247C194.021 146.053 192.939 147.822 191.793 149.549C190.573 151.387 189.351 153.067 188.163 154.593C188.763 158.849 188.621 162.367 188.358 164.849C187.578 172.225 184.915 178.09 183.487 181.175C183.426 181.306 183.376 181.413 183.342 181.485C183.342 181.485 183.074 181.546 183.072 181.546C178.39 182.605 169.134 180.111 169.134 180.111C166.469 179.394 163.48 178.535 160.229 177.508C157.669 178.79 155.049 179.934 152.375 180.936C148.499 182.389 144.874 183.408 141.64 184.132C139.773 186.763 137.48 189.644 134.678 192.584C130.861 196.592 127.07 199.695 123.751 202.059C123.734 202.088 123.576 202.338 123.26 202.369C123.01 202.393 122.803 202.23 122.722 202.164C112.697 194.023 110.811 191.746 110.811 191.746C108.211 188.609 106.037 185.89 104.371 183.773C101.422 183.053 98.5163 182.168 95.6683 181.121C92.5492 179.975 89.7588 178.732 87.3138 177.508C84.1863 178.475 81.518 179.167 79.5126 179.647C68.2258 182.349 66.271 181.135 65.0267 181.447C64.941 181.468 64.6237 181.557 64.3596 181.399C64.0521 181.215 63.9903 180.798 63.972 180.691C63.7052 179.131 61.4934 177.729 60.1031 166.245C59.7379 163.236 59.3995 159.281 59.3784 154.593C58.1075 152.959 56.8955 151.276 55.7496 149.549C54.5292 147.712 53.4562 145.935 52.5111 144.247C47.5945 141.883 44.4319 140.377 42.4573 139.44C38.0378 137.343 34.3809 133.906 30.2114 131.346C30.1917 131.333 30.1131 131.288 30.085 131.201C30.0471 131.084 30.1229 130.965 30.1398 130.935C33.1044 125.95 35.3106 120.512 38.556 115.706C39.4815 114.338 40.7974 112.332 42.3029 109.823C42.1961 108.23 42.1386 106.624 42.1231 105.024C42.0136 105.072 41.9054 105.121 41.7945 105.167C28.1119 111.095 15.8336 113.256 7.28812 114.082C6.5059 110.736 5.03835 103.262 5.85287 93.6213C5.87955 93.2962 26.6457 93.2639 26.6794 92.9345C26.7103 92.6122 6.00875 91.993 6.04667 91.6651C6.73481 85.6288 7.40889 80.7551 10.6024 73.6549C10.9689 72.8372 11.3481 72.0364 11.7371 71.2539C11.9323 70.8613 33.4372 81.1717 33.638 80.7861C33.836 80.4061 12.73 69.33 12.9336 68.9571C15.9909 63.3417 20.4722 56.7692 23.9522 52.9862C24.4156 52.481 37.9283 63.93 38.3889 63.4557C38.8187 63.0138 26.1963 50.6486 26.6205 50.2334C31.2366 45.7129 35.4651 42.7574 37.9213 41.1615C42.6891 44.7728 48.7896 50.2841 54.2216 58.2329C54.5713 58.7452 54.9069 59.2561 55.2384 59.7669C56.0164 58.5665 56.8253 57.3843 57.6679 56.2232C58.5498 55.0072 59.4276 53.8658 60.2884 52.799C60.1747 49.0836 60.36 44.4041 61.3684 39.1137C62.2306 34.589 63.4833 30.7286 64.7192 27.6267C68.0011 27.5465 72.1032 27.7351 76.7278 28.6344C80.5266 29.3733 83.7931 30.4218 86.4557 31.4675C89.4386 29.9292 92.5057 28.5795 95.643 27.4269C99.4095 26.042 102.918 25.0695 106.035 24.3785C107.722 21.561 110.203 18.0186 113.762 14.4439C117.366 10.8241 120.938 8.30632 123.771 6.60481C126.761 8.48787 130.437 11.1943 134.131 14.9899C137.385 18.331 139.779 21.6201 141.508 24.3785C144.777 25.1033 147.992 26.0294 151.137 27.1511C155.047 28.5444 158.47 30.1023 161.384 31.6223C164.319 30.5935 167.78 29.5957 171.711 28.8526C176.325 27.9814 180.488 27.6704 183.995 27.6267C185.359 31.946 186.642 36.9872 187.55 42.6688C188.246 47.026 188.61 51.075 188.766 54.73C191.279 58.0359 193.524 61.5121 195.495 65.1347H197.084C208.847 65.1347 218.382 74.1573 218.382 85.2883C218.382 93.6199 213.04 100.769 205.421 103.839C205.423 103.982 205.427 104.126 205.427 104.27C205.427 106.116 205.364 107.979 205.24 109.823C208.192 113.112 210.303 116.176 211.758 118.549C215.573 124.768 216.891 129.502 217.165 130.521C217.235 130.783 217.291 131 217.326 131.142C217.267 131.224 217.172 131.352 217.051 131.508Z" fill="#FEFEFE"/>
<path d="M131.922 74.6821C133.449 69.4292 130.437 63.9305 125.196 62.4004C119.954 60.8703 114.467 63.8882 112.94 69.1411C111.414 74.394 114.425 79.8927 119.667 81.4228C124.908 82.9529 130.395 79.935 131.922 74.6821Z" fill="#FEFEFE"/>
<path d="M199.556 110.628C199.726 108.701 199.82 106.752 199.845 104.786C198.942 104.897 198.022 104.954 197.087 104.954H165.556C173.987 104.541 181.14 103.974 186.648 103.463C197.217 102.482 200.06 101.864 203.159 99.9404C204.903 98.8582 213.438 93.2019 212.813 84.7999C212.304 77.9615 205.905 71.6677 197.087 70.228H153.608C152.194 70.1435 147.267 70.0225 142.582 73.434C138.496 76.4092 136.966 80.3428 136.479 81.8092C134.645 87.3346 136.235 92.076 136.886 93.7184C139.994 101.549 147.648 104.082 148.743 104.426C141.446 102.811 135.594 97.6464 133.328 90.96C117.859 89.3415 103.148 89.3894 83.2035 91.8776C75.5582 92.8318 64.7685 94.857 51.9019 99.7026C50.5593 100.447 49.1634 101.186 47.7155 101.914C47.7 102.534 47.6916 103.156 47.6916 103.781C47.6916 106.177 47.8011 108.462 47.9949 110.628C46.2367 112.504 44.2425 114.947 42.3691 118.011C39.9283 122 38.479 125.747 37.5957 128.682C39.8427 130.454 42.4506 132.309 45.4348 134.113C49.4639 136.55 53.2851 138.358 56.6514 139.707C57.7917 141.842 59.0304 143.917 60.3617 145.924C61.7969 148.09 63.2392 150.025 64.6253 151.74C64.5284 155.198 64.6744 159.388 65.4019 164.082C66.1083 168.63 67.1896 172.554 68.2893 175.751C71.0853 175.702 74.5751 175.404 78.4961 174.505C82.403 173.609 85.6653 172.364 88.1988 171.196C91.4484 172.921 94.8372 174.417 98.3452 175.664C101.522 176.793 104.501 177.611 107.191 178.21C108.945 180.855 111.337 183.983 114.53 187.162C117.603 190.221 120.62 192.532 123.188 194.243C125.637 192.688 128.557 190.54 131.526 187.627C134.832 184.383 137.207 181.161 138.872 178.525C141.157 178.065 143.405 177.501 145.612 176.839C150.966 175.235 155.557 173.207 159.353 171.194C162.065 172.267 165.552 173.37 169.696 174.037C173.186 174.599 176.309 174.717 178.896 174.647C179.976 172.229 181.069 169.248 181.864 165.755C183.126 160.197 183.182 155.329 182.928 151.737C184.438 149.87 185.862 147.929 187.192 145.921C188.633 143.746 189.859 141.656 190.902 139.704C193.864 138.881 197.773 137.461 201.947 134.925C205.374 132.842 208.018 130.59 209.958 128.679C209.379 126.509 208.513 123.981 207.187 121.287C204.812 116.462 201.877 112.956 199.558 110.627L199.556 110.628ZM64.2644 133.021C61.4486 131.975 58.9981 130.775 56.9168 129.588C56.8536 129.553 56.6233 129.425 56.5798 129.331C56.5755 129.322 56.5727 129.314 56.5727 129.314C56.5629 129.284 56.5643 129.242 56.5784 129.125C56.5854 129.062 56.5952 128.993 56.605 128.917C56.8073 127.502 57.1008 125.7 57.5291 123.618C57.5291 123.618 57.9827 121.349 58.5304 119.307C60.0555 113.624 62.1059 108.935 63.183 106.618C62.3362 110.245 61.641 114.602 61.4852 119.549C61.4051 122.118 61.4809 124.513 61.6509 126.704C63.3501 128.112 65.3668 129.592 67.7191 131.01C71.9869 133.58 76.0315 135.135 79.3106 136.104C75.3166 135.902 70.0545 135.173 64.263 133.021H64.2644ZM119.989 165.78C117.335 167.188 114.808 168.219 112.539 168.983C112.472 169.007 112.223 169.095 112.123 169.064C112.114 169.061 112.105 169.058 112.105 169.058C112.077 169.045 112.048 169.017 111.969 168.929C111.927 168.881 111.88 168.827 111.833 168.769C110.916 167.676 109.768 166.256 108.506 164.549C108.506 164.549 107.12 162.698 105.965 160.928C102.753 156.002 100.63 151.345 99.6232 148.997C101.758 152.046 104.536 155.47 108.113 158.881C109.97 160.653 111.803 162.191 113.547 163.524C115.727 163.192 118.172 162.673 120.794 161.858C125.55 160.38 129.401 158.396 132.308 156.59C129.497 159.44 125.448 162.887 119.986 165.78H119.989ZM148.601 87.0869C148.601 85.3995 150.127 84.3242 151.337 84.1314C151.697 84.0737 152.011 84.0976 152.244 84.1342V84.1314H195.939C198.793 83.8443 200.849 85.6683 200.849 87.0869C200.849 88.5041 198.794 90.3295 195.939 90.0438H152.244V90.041C152.01 90.0776 151.695 90.1015 151.337 90.0438C150.127 89.851 148.601 88.7758 148.601 87.0883V87.0869ZM175.201 141.561C174.978 143.624 174.592 145.863 174.592 145.863C174.248 147.921 173.88 149.676 173.567 151.042C173.55 151.114 173.534 151.182 173.519 151.242C173.489 151.355 173.477 151.393 173.458 151.417C173.458 151.417 173.453 151.424 173.446 151.431C173.374 151.502 173.123 151.538 173.054 151.547C170.771 151.894 168.15 152.123 165.256 152.081C159.303 151.995 154.323 150.794 150.664 149.56C153.949 149.837 158.124 149.849 162.856 149.013C165.464 148.551 167.793 147.912 169.811 147.227C170.731 145.28 171.638 143.116 172.464 140.736C174.057 136.152 174.957 131.917 175.467 128.296C175.623 130.799 175.822 135.82 175.201 141.564V141.561Z" fill="#FEFEFE"/>
</g>
<defs>
<clipPath id="clip0_342_369">
<rect width="224" height="208" fill="white"/>
</clipPath>
</defs>
</svg>
