<svg width="34" height="34" viewBox="0 0 34 34" fill="none" xmlns="http://www.w3.org/2000/svg">
<g id="Frame">
<path id="Vector" d="M9.372 29.75C8.73804 29.75 8.19805 29.5271 7.75204 29.0813C7.30626 28.6353 7.08337 28.0953 7.08337 27.4614V15.0386C7.08337 14.4047 7.30626 13.8647 7.75204 13.4187C8.19805 12.9729 8.73804 12.75 9.372 12.75H11.3334V9.91667C11.3334 8.33826 11.8833 6.99928 12.9831 5.89971C14.0827 4.7999 15.4216 4.25 17 4.25C18.5784 4.25 19.9174 4.7999 21.017 5.89971C22.1168 6.99928 22.6667 8.33826 22.6667 9.91667V12.75H24.6281C25.262 12.75 25.802 12.9729 26.248 13.4187C26.6938 13.8647 26.9167 14.4047 26.9167 15.0386V27.4614C26.9167 28.0953 26.6938 28.6353 26.248 29.0813C25.802 29.5271 25.262 29.75 24.6281 29.75H9.372ZM9.372 28.3333H24.6281C24.8824 28.3333 25.0913 28.2516 25.255 28.0883C25.4183 27.9246 25.5 27.7157 25.5 27.4614V15.0386C25.5 14.7843 25.4183 14.5754 25.255 14.4117C25.0913 14.2484 24.8824 14.1667 24.6281 14.1667H9.372C9.11771 14.1667 8.90875 14.2484 8.74512 14.4117C8.58174 14.5754 8.50004 14.7843 8.50004 15.0386V27.4614C8.50004 27.7157 8.58174 27.9246 8.74512 28.0883C8.90875 28.2516 9.11771 28.3333 9.372 28.3333ZM17 23.375C17.5976 23.375 18.1011 23.1702 18.5106 22.7605C18.9202 22.3511 19.125 21.8476 19.125 21.25C19.125 20.6524 18.9202 20.1489 18.5106 19.7395C18.1011 19.3298 17.5976 19.125 17 19.125C16.4024 19.125 15.8989 19.3298 15.4895 19.7395C15.0799 20.1489 14.875 20.6524 14.875 21.25C14.875 21.8476 15.0799 22.3511 15.4895 22.7605C15.8989 23.1702 16.4024 23.375 17 23.375ZM12.75 12.75H21.25V9.91667C21.25 8.73611 20.8368 7.73264 20.0105 6.90625C19.1841 6.07986 18.1806 5.66667 17 5.66667C15.8195 5.66667 14.816 6.07986 13.9896 6.90625C13.1632 7.73264 12.75 8.73611 12.75 9.91667V12.75Z" fill="#E3E3E3"/>
</g>
</svg>
