<svg width="326" height="104" viewBox="0 0 326 104" fill="none" xmlns="http://www.w3.org/2000/svg">
<circle cx="5.5" cy="5.5" r="5.5" transform="matrix(1 0 0 -1 116 42)" fill="#FFB464"/>
<ellipse cx="6.93803" cy="8.5" rx="6.93803" ry="8.5" transform="matrix(1 0 0 -1 135 39)" fill="#FFB464"/>
<path d="M303 98C315.702 98 326 87.7025 326 75V68C326 55.2975 315.702 45 303 45H175.908C174.026 38.0297 168.665 33.0002 162.345 33C155.273 33 149.402 39.2957 148.262 47.5615C140.869 51.3867 135.816 59.1025 135.816 68V75C135.816 87.7025 146.114 98 158.816 98H303Z" fill="#FFB464"/>
<path d="M171.513 66.06L167.473 80H165.433L162.193 68.78L158.833 80L156.813 80.02L152.913 66.06H154.853L157.893 77.88L161.253 66.06H163.293L166.493 77.84L169.553 66.06H171.513ZM183.505 74.1C183.505 74.4467 183.485 74.8133 183.445 75.2H174.685C174.752 76.28 175.118 77.1267 175.785 77.74C176.465 78.34 177.285 78.64 178.245 78.64C179.032 78.64 179.685 78.46 180.205 78.1C180.738 77.7267 181.112 77.2333 181.325 76.62H183.285C182.992 77.6733 182.405 78.5333 181.525 79.2C180.645 79.8533 179.552 80.18 178.245 80.18C177.205 80.18 176.272 79.9467 175.445 79.48C174.632 79.0133 173.992 78.3533 173.525 77.5C173.058 76.6333 172.825 75.6333 172.825 74.5C172.825 73.3667 173.052 72.3733 173.505 71.52C173.958 70.6667 174.592 70.0133 175.405 69.56C176.232 69.0933 177.178 68.86 178.245 68.86C179.285 68.86 180.205 69.0867 181.005 69.54C181.805 69.9933 182.418 70.62 182.845 71.42C183.285 72.2067 183.505 73.1 183.505 74.1ZM181.625 73.72C181.625 73.0267 181.472 72.4333 181.165 71.94C180.858 71.4333 180.438 71.0533 179.905 70.8C179.385 70.5333 178.805 70.4 178.165 70.4C177.245 70.4 176.458 70.6933 175.805 71.28C175.165 71.8667 174.798 72.68 174.705 73.72H181.625ZM187.727 65.2V80H185.907V65.2H187.727ZM190.149 74.5C190.149 73.3667 190.376 72.38 190.829 71.54C191.282 70.6867 191.909 70.0267 192.709 69.56C193.522 69.0933 194.449 68.86 195.489 68.86C196.836 68.86 197.942 69.1867 198.809 69.84C199.689 70.4933 200.269 71.4 200.549 72.56H198.589C198.402 71.8933 198.036 71.3667 197.489 70.98C196.956 70.5933 196.289 70.4 195.489 70.4C194.449 70.4 193.609 70.76 192.969 71.48C192.329 72.1867 192.009 73.1933 192.009 74.5C192.009 75.82 192.329 76.84 192.969 77.56C193.609 78.28 194.449 78.64 195.489 78.64C196.289 78.64 196.956 78.4533 197.489 78.08C198.022 77.7067 198.389 77.1733 198.589 76.48H200.549C200.256 77.6 199.669 78.5 198.789 79.18C197.909 79.8467 196.809 80.18 195.489 80.18C194.449 80.18 193.522 79.9467 192.709 79.48C191.909 79.0133 191.282 78.3533 190.829 77.5C190.376 76.6467 190.149 75.6467 190.149 74.5ZM207.758 80.18C206.731 80.18 205.798 79.9467 204.958 79.48C204.131 79.0133 203.478 78.3533 202.998 77.5C202.531 76.6333 202.298 75.6333 202.298 74.5C202.298 73.38 202.538 72.3933 203.018 71.54C203.511 70.6733 204.178 70.0133 205.018 69.56C205.858 69.0933 206.798 68.86 207.838 68.86C208.878 68.86 209.818 69.0933 210.658 69.56C211.498 70.0133 212.158 70.6667 212.638 71.52C213.131 72.3733 213.378 73.3667 213.378 74.5C213.378 75.6333 213.124 76.6333 212.618 77.5C212.124 78.3533 211.451 79.0133 210.598 79.48C209.744 79.9467 208.798 80.18 207.758 80.18ZM207.758 78.58C208.411 78.58 209.024 78.4267 209.598 78.12C210.171 77.8133 210.631 77.3533 210.978 76.74C211.338 76.1267 211.518 75.38 211.518 74.5C211.518 73.62 211.344 72.8733 210.998 72.26C210.651 71.6467 210.198 71.1933 209.638 70.9C209.078 70.5933 208.471 70.44 207.818 70.44C207.151 70.44 206.538 70.5933 205.978 70.9C205.431 71.1933 204.991 71.6467 204.658 72.26C204.324 72.8733 204.158 73.62 204.158 74.5C204.158 75.3933 204.318 76.1467 204.638 76.76C204.971 77.3733 205.411 77.8333 205.958 78.14C206.504 78.4333 207.104 78.58 207.758 78.58ZM228.95 68.84C229.804 68.84 230.564 69.02 231.23 69.38C231.897 69.7267 232.424 70.2533 232.81 70.96C233.197 71.6667 233.39 72.5267 233.39 73.54V80H231.59V73.8C231.59 72.7067 231.317 71.8733 230.77 71.3C230.237 70.7133 229.51 70.42 228.59 70.42C227.644 70.42 226.89 70.7267 226.33 71.34C225.77 71.94 225.49 72.8133 225.49 73.96V80H223.69V73.8C223.69 72.7067 223.417 71.8733 222.87 71.3C222.337 70.7133 221.61 70.42 220.69 70.42C219.744 70.42 218.99 70.7267 218.43 71.34C217.87 71.94 217.59 72.8133 217.59 73.96V80H215.77V69.04H217.59V70.62C217.95 70.0467 218.43 69.6067 219.03 69.3C219.644 68.9933 220.317 68.84 221.05 68.84C221.97 68.84 222.784 69.0467 223.49 69.46C224.197 69.8733 224.724 70.48 225.07 71.28C225.377 70.5067 225.884 69.9067 226.59 69.48C227.297 69.0533 228.084 68.84 228.95 68.84ZM246.376 74.1C246.376 74.4467 246.356 74.8133 246.316 75.2H237.556C237.623 76.28 237.989 77.1267 238.656 77.74C239.336 78.34 240.156 78.64 241.116 78.64C241.903 78.64 242.556 78.46 243.076 78.1C243.609 77.7267 243.983 77.2333 244.196 76.62H246.156C245.863 77.6733 245.276 78.5333 244.396 79.2C243.516 79.8533 242.423 80.18 241.116 80.18C240.076 80.18 239.143 79.9467 238.316 79.48C237.503 79.0133 236.863 78.3533 236.396 77.5C235.929 76.6333 235.696 75.6333 235.696 74.5C235.696 73.3667 235.923 72.3733 236.376 71.52C236.829 70.6667 237.463 70.0133 238.276 69.56C239.103 69.0933 240.049 68.86 241.116 68.86C242.156 68.86 243.076 69.0867 243.876 69.54C244.676 69.9933 245.289 70.62 245.716 71.42C246.156 72.2067 246.376 73.1 246.376 74.1ZM244.496 73.72C244.496 73.0267 244.343 72.4333 244.036 71.94C243.729 71.4333 243.309 71.0533 242.776 70.8C242.256 70.5333 241.676 70.4 241.036 70.4C240.116 70.4 239.329 70.6933 238.676 71.28C238.036 71.8667 237.669 72.68 237.576 73.72H244.496ZM255.93 71.08C256.304 70.4267 256.85 69.8933 257.57 69.48C258.29 69.0667 259.11 68.86 260.03 68.86C261.017 68.86 261.904 69.0933 262.69 69.56C263.477 70.0267 264.097 70.6867 264.55 71.54C265.004 72.38 265.23 73.36 265.23 74.48C265.23 75.5867 265.004 76.5733 264.55 77.44C264.097 78.3067 263.47 78.98 262.67 79.46C261.884 79.94 261.004 80.18 260.03 80.18C259.084 80.18 258.25 79.9733 257.53 79.56C256.824 79.1467 256.29 78.62 255.93 77.98V80H254.11V65.2H255.93V71.08ZM263.37 74.48C263.37 73.6533 263.204 72.9333 262.87 72.32C262.537 71.7067 262.084 71.24 261.51 70.92C260.95 70.6 260.33 70.44 259.65 70.44C258.984 70.44 258.364 70.6067 257.79 70.94C257.23 71.26 256.777 71.7333 256.43 72.36C256.097 72.9733 255.93 73.6867 255.93 74.5C255.93 75.3267 256.097 76.0533 256.43 76.68C256.777 77.2933 257.23 77.7667 257.79 78.1C258.364 78.42 258.984 78.58 259.65 78.58C260.33 78.58 260.95 78.42 261.51 78.1C262.084 77.7667 262.537 77.2933 262.87 76.68C263.204 76.0533 263.37 75.32 263.37 74.48ZM266.946 74.48C266.946 73.36 267.173 72.38 267.626 71.54C268.079 70.6867 268.699 70.0267 269.486 69.56C270.286 69.0933 271.173 68.86 272.146 68.86C273.106 68.86 273.939 69.0667 274.646 69.48C275.353 69.8933 275.879 70.4133 276.226 71.04V69.04H278.066V80H276.226V77.96C275.866 78.6 275.326 79.1333 274.606 79.56C273.899 79.9733 273.073 80.18 272.126 80.18C271.153 80.18 270.273 79.94 269.486 79.46C268.699 78.98 268.079 78.3067 267.626 77.44C267.173 76.5733 266.946 75.5867 266.946 74.48ZM276.226 74.5C276.226 73.6733 276.059 72.9533 275.726 72.34C275.393 71.7267 274.939 71.26 274.366 70.94C273.806 70.6067 273.186 70.44 272.506 70.44C271.826 70.44 271.206 70.6 270.646 70.92C270.086 71.24 269.639 71.7067 269.306 72.32C268.973 72.9333 268.806 73.6533 268.806 74.48C268.806 75.32 268.973 76.0533 269.306 76.68C269.639 77.2933 270.086 77.7667 270.646 78.1C271.206 78.42 271.826 78.58 272.506 78.58C273.186 78.58 273.806 78.42 274.366 78.1C274.939 77.7667 275.393 77.2933 275.726 76.68C276.059 76.0533 276.226 75.3267 276.226 74.5ZM280.462 74.5C280.462 73.3667 280.688 72.38 281.142 71.54C281.595 70.6867 282.222 70.0267 283.022 69.56C283.835 69.0933 284.762 68.86 285.802 68.86C287.148 68.86 288.255 69.1867 289.122 69.84C290.002 70.4933 290.582 71.4 290.862 72.56H288.902C288.715 71.8933 288.348 71.3667 287.802 70.98C287.268 70.5933 286.602 70.4 285.802 70.4C284.762 70.4 283.922 70.76 283.282 71.48C282.642 72.1867 282.322 73.1933 282.322 74.5C282.322 75.82 282.642 76.84 283.282 77.56C283.922 78.28 284.762 78.64 285.802 78.64C286.602 78.64 287.268 78.4533 287.802 78.08C288.335 77.7067 288.702 77.1733 288.902 76.48H290.862C290.568 77.6 289.982 78.5 289.102 79.18C288.222 79.8467 287.122 80.18 285.802 80.18C284.762 80.18 283.835 79.9467 283.022 79.48C282.222 79.0133 281.595 78.3533 281.142 77.5C280.688 76.6467 280.462 75.6467 280.462 74.5ZM299.41 80L295.11 75.16V80H293.29V65.2H295.11V73.9L299.33 69.04H301.87L296.71 74.5L301.89 80H299.41ZM305.943 66.06L305.723 76.06H304.203L303.983 66.06H305.943ZM305.043 80.12C304.696 80.12 304.403 80 304.163 79.76C303.923 79.52 303.803 79.2267 303.803 78.88C303.803 78.5333 303.923 78.24 304.163 78C304.403 77.76 304.696 77.64 305.043 77.64C305.376 77.64 305.656 77.76 305.883 78C306.123 78.24 306.243 78.5333 306.243 78.88C306.243 79.2267 306.123 79.52 305.883 79.76C305.656 80 305.376 80.12 305.043 80.12Z" fill="#FFF4E5"/>
<path d="M111.294 64.325C110.972 63.1311 110.151 60.6724 108.272 57.6189C107.446 56.277 106.512 54.9821 105.486 53.7566C105.489 53.6773 105.492 53.5974 105.494 53.5181C109.5 51.2159 112 47.0702 112 42.5099C112 39.0467 110.579 35.7996 108 33.3669C105.668 31.1671 102.639 29.8764 99.3931 29.6842C98.6966 28.5162 97.9446 27.3791 97.1448 26.2848C97.0373 24.4575 96.8372 22.6253 96.5486 20.8239C96.1217 18.159 95.4919 15.5011 94.6759 12.9239L94.0475 10.9388L91.9634 10.9647C89.7446 10.9921 87.5152 11.2137 85.3356 11.6234C83.8463 11.904 82.3633 12.2758 80.9126 12.7317C79.4809 12.038 78.0049 11.42 76.5107 10.8889C75.1969 10.4225 73.8487 10.0163 72.4886 9.6768C71.4747 8.19249 70.3301 6.79586 69.0767 5.51146C67.369 3.7634 65.4528 2.21735 63.38 0.916122L61.9202 0L60.4414 0.885257C58.4219 2.0953 56.5548 3.55225 54.8928 5.21755C53.5334 6.5791 52.3123 8.07815 51.2534 9.68382C49.7655 10.0563 48.2902 10.5095 46.855 11.0356C45.5721 11.5062 44.3012 12.0415 43.0633 12.6342C41.7031 12.1656 40.3079 11.791 38.8994 11.5175C36.9768 11.145 35.0079 10.9556 33.0474 10.9556C32.7967 10.9556 32.5419 10.9591 32.2912 10.9654L30.4388 11.0103L29.7521 12.7296C28.9467 14.7428 28.3323 16.8423 27.9258 18.9692C27.5684 20.84 27.3682 22.7452 27.3289 24.6532C25.3762 22.2907 23.1404 20.1547 20.6547 18.2775L19.0847 17.0921L17.4332 18.1618C15.2691 19.5633 13.2222 21.2013 11.3481 23.0307C11.0911 23.2811 10.8889 23.5723 10.747 23.8865C10.4346 24.0387 10.1502 24.2485 9.91145 24.5073C8.07035 26.5023 5.69559 29.9255 4.00195 33.0253C3.88749 33.2343 3.80253 33.4525 3.74565 33.6756C3.59398 33.8516 3.46197 34.0487 3.35524 34.2641C3.14248 34.6899 2.93605 35.1255 2.74084 35.5583C1.0184 39.3764 0.614654 42.0336 0.233373 45.3698L0.096449 46.5847L0.113301 46.6051C-0.178804 50.2703 0.096449 54.0344 0.909568 57.5017L1.4699 59.8903L3.91418 59.6546C8.12582 59.2484 12.2687 58.4024 16.29 57.1293C15.5534 58.3365 14.9215 59.5676 14.3071 60.7671C13.7559 61.8418 13.2348 62.8575 12.6577 63.8248C12.2153 64.5656 12.11 65.4508 12.3698 66.2547C12.5839 66.919 13.0333 67.4879 13.6358 67.8569L13.6386 67.8583C14.3682 68.3051 15.0879 68.8312 15.8497 69.3882C17.1298 70.3247 18.4534 71.292 20.027 72.0362C21.2867 72.6318 22.6763 73.294 24.2555 74.0502C24.6635 74.7425 25.0932 75.4272 25.5363 76.0936C25.9702 76.7445 26.4245 77.3885 26.8943 78.0177C26.9329 79.7573 27.0565 81.4963 27.2636 83.1988C27.8401 87.9449 28.7297 89.7091 29.2079 90.6568C29.2262 90.6926 29.2473 90.7354 29.2662 90.7726C29.5436 91.9503 30.297 92.5585 30.7401 92.8223C31.2253 93.1127 31.7863 93.2656 32.3614 93.2656C32.5454 93.2656 32.7258 93.2509 32.9077 93.2207C32.9316 93.2221 32.9568 93.2228 32.9786 93.2242C33.1858 93.2347 33.4687 93.2494 33.8374 93.2494C35.4973 93.2494 37.6474 92.9289 40.4097 92.2695C41.4089 92.031 42.4166 91.7644 43.4172 91.4747C44.5462 92.0022 45.7027 92.4827 46.8683 92.9099C48.0796 93.3533 49.3217 93.7461 50.5723 94.0807C51.4472 95.1785 52.3439 96.2798 53.2455 97.3643C53.5081 97.6799 54.7425 99.017 59.5925 102.944C60.3368 103.546 61.0972 103.673 61.6042 103.673C61.7039 103.673 61.8036 103.668 61.9019 103.659C62.5858 103.592 63.2276 103.298 63.7255 102.839C65.7526 101.379 67.6506 99.7268 69.3717 97.9262C70.4727 96.7736 71.514 95.5468 72.4753 94.268C74.0671 93.8717 75.6421 93.3827 77.1721 92.811C78.2408 92.4119 79.3025 91.9665 80.341 91.4817C81.501 91.8339 82.6737 92.1692 83.8386 92.482C84.1974 92.5788 87.4225 93.4234 90.1322 93.4234C90.8982 93.4234 91.5597 93.3582 92.1558 93.2242H92.1551C92.1994 93.2144 92.2436 93.2039 92.2892 93.194L93.6311 92.8889L94.2153 91.6466C94.2329 91.608 94.2595 91.5512 94.2911 91.4838C94.9596 90.0451 96.5248 86.6753 96.9728 82.4608C97.1336 80.9449 97.1434 79.3996 97.0015 77.8507C97.4271 77.2748 97.8399 76.687 98.2353 76.0936C98.6643 75.4489 99.0793 74.7881 99.4746 74.121C100.743 73.5865 102.007 73.0267 103.246 72.4515C106.939 70.735 109.005 69.5208 110.749 67.2613C110.825 67.1631 110.886 67.0817 110.924 67.0305L111.711 65.965L111.388 64.6799C111.367 64.5985 111.335 64.4751 111.294 64.325ZM108.526 65.5469C107.144 67.3371 105.455 68.3304 102.061 69.9073C100.802 70.4923 99.2745 71.1734 97.5162 71.8966C97.0107 72.7966 96.47 73.6784 95.897 74.5391C95.2868 75.4552 94.6759 76.2928 94.0819 77.0532C94.3817 79.1744 94.3108 80.9281 94.1795 82.1648C93.7891 85.8412 92.4578 88.7649 91.7437 90.3026C91.7135 90.3678 91.6882 90.4211 91.6713 90.4569C91.6713 90.4569 91.5372 90.4871 91.5365 90.4871C89.1955 91.0153 84.5674 89.7723 84.5674 89.7723C83.2347 89.4145 81.7405 88.9866 80.1149 88.4745C78.8349 89.1136 77.5246 89.6839 76.1877 90.1833C74.2497 90.9072 72.4373 91.4151 70.8202 91.7764C69.887 93.0874 68.7404 94.5233 67.3396 95.9887C65.431 97.9865 63.5352 99.5332 61.8759 100.712C61.8675 100.726 61.7882 100.851 61.6302 100.866C61.5052 100.878 61.402 100.797 61.3612 100.764C56.3491 96.7063 55.4061 95.5713 55.4061 95.5713C54.1057 94.0077 53.0187 92.6525 52.1859 91.5975C50.7113 91.2383 49.2585 90.7971 47.8345 90.2752C46.275 89.7042 44.8798 89.0848 43.6573 88.4745C42.0935 88.9564 40.7594 89.3016 39.7567 89.5408C34.1133 90.8876 33.1359 90.2822 32.5138 90.438C32.4709 90.4485 32.3122 90.4927 32.1802 90.4141C32.0265 90.3222 31.9956 90.1146 31.9864 90.0613C31.853 89.2833 30.7471 88.5847 30.0519 82.8607C29.8694 81.3609 29.7002 79.3898 29.6896 77.0532C29.0542 76.2388 28.4482 75.3998 27.8752 74.5391C27.265 73.6237 26.7286 72.7377 26.256 71.8966C23.7977 70.7182 22.2164 69.9676 21.2291 69.5004C19.0194 68.4552 17.1909 66.7422 15.1061 65.4663C15.0963 65.4599 15.057 65.4375 15.0429 65.394C15.024 65.3358 15.0619 65.2762 15.0703 65.2614C16.5526 62.7768 17.6557 60.0663 19.2785 57.6708C19.7412 56.989 20.3991 55.9894 21.1519 54.7387C21.0985 53.9446 21.0697 53.1442 21.062 52.3466C21.0072 52.3705 20.9532 52.395 20.8977 52.4182C14.0564 55.3728 7.91728 56.4495 3.64454 56.8613C3.25343 55.1939 2.51966 51.4684 2.92692 46.6633C2.94026 46.5013 13.3233 46.4851 13.3402 46.321C13.3556 46.1604 3.00486 45.8517 3.02382 45.6883C3.36788 42.6796 3.70493 40.2504 5.30167 36.7115C5.48494 36.304 5.67453 35.9048 5.86903 35.5148C5.96663 35.3191 16.719 40.4581 16.8195 40.2659C16.9185 40.0765 6.36547 34.5559 6.46728 34.37C7.99592 31.5711 10.2366 28.2953 11.9766 26.4097C12.2083 26.1579 18.9646 31.8644 19.1949 31.628C19.4098 31.4077 13.0986 25.2446 13.3107 25.0376C15.6187 22.7845 17.733 21.3114 18.9611 20.5159C21.345 22.3159 24.3952 25.0629 27.1112 29.0248C27.2861 29.2801 27.4539 29.5348 27.6196 29.7894C28.0086 29.191 28.4131 28.6018 28.8344 28.0231C29.2753 27.417 29.7142 26.8481 30.1446 26.3164C30.0878 24.4645 30.1804 22.1321 30.6846 19.4953C31.1157 17.2401 31.7421 15.3159 32.36 13.7699C34.001 13.7299 36.052 13.8239 38.3643 14.2721C40.2637 14.6404 41.8969 15.163 43.2283 15.6842C44.7197 14.9175 46.2532 14.2448 47.8219 13.6703C49.7051 12.98 51.4592 12.4953 53.018 12.1509C53.8613 10.7465 55.102 8.98094 56.8814 7.1992C58.6831 5.39502 60.4695 4.14009 61.8858 3.29201C63.3807 4.23058 65.219 5.57951 67.0657 7.47138C68.6926 9.13667 69.8899 10.776 70.7542 12.1509C72.3889 12.5122 73.9962 12.9737 75.569 13.5328C77.5239 14.2273 79.2351 15.0038 80.6921 15.7614C82.1597 15.2486 83.8905 14.7512 85.8559 14.3809C88.1626 13.9467 90.2445 13.7916 91.9978 13.7699C92.6797 15.9227 93.3214 18.4354 93.775 21.2672C94.1233 23.439 94.3052 25.4571 94.3831 27.2788C95.64 28.9266 96.7621 30.6592 97.7479 32.4648H98.5421C104.424 32.4648 109.191 36.962 109.191 42.5099C109.191 46.6626 106.52 50.2261 102.711 51.756C102.712 51.8275 102.714 51.8991 102.714 51.9706C102.714 52.891 102.682 53.8197 102.62 54.7387C104.096 56.378 105.152 57.9051 105.879 59.0878C107.787 62.1876 108.446 64.5473 108.583 65.0552C108.618 65.1857 108.646 65.2937 108.663 65.3645C108.634 65.4052 108.586 65.4691 108.526 65.5469Z" fill="#FFF4E5"/>
<path d="M65.9613 37.2233C66.7247 34.6051 65.219 31.8644 62.5982 31.1017C59.9774 30.3391 57.2339 31.8433 56.4705 34.4615C55.7071 37.0797 57.2128 39.8204 59.8337 40.583C62.4545 41.3457 65.1979 39.8414 65.9613 37.2233Z" fill="#FFF4E5"/>
<path d="M99.778 55.14C99.8629 54.1797 99.91 53.2082 99.9226 52.2282C99.4711 52.2836 99.0112 52.3117 98.5435 52.3117H82.7783C86.9935 52.1062 90.5703 51.8235 93.3243 51.5688C98.6088 51.0799 100.03 50.772 101.58 49.8131C102.452 49.2736 106.719 46.4544 106.407 42.2666C106.152 38.8582 102.953 35.7212 98.5435 35.0036H76.8042C76.0971 34.9615 73.6339 34.9012 71.2914 36.6015C69.2481 38.0845 68.4834 40.0451 68.2398 40.776C67.3227 43.53 68.1176 45.8932 68.4434 46.7119C69.9973 50.6148 73.8242 51.8775 74.3719 52.0487C70.7234 51.2441 67.7974 48.6697 66.6641 45.337C58.9296 44.5303 51.5743 44.5541 41.6021 45.7943C37.7794 46.2699 32.3846 47.2793 25.9513 49.6945C25.28 50.0656 24.582 50.4339 23.8581 50.7965C23.8504 51.1059 23.8462 51.4159 23.8462 51.7274C23.8462 52.9213 23.9009 54.0605 23.9978 55.14C23.1187 56.0751 22.1216 57.2929 21.1849 58.82C19.9645 60.8079 19.2399 62.676 18.7982 64.1385C19.9217 65.0217 21.2256 65.9462 22.7178 66.8455C24.7323 68.0605 26.6429 68.9611 28.326 69.6339C28.8962 70.698 29.5155 71.732 30.1812 72.7323C30.8988 73.8118 31.6199 74.7763 32.313 75.6314C32.2645 77.355 32.3376 79.4432 32.7013 81.7826C33.0545 84.0498 33.5952 86.0055 34.145 87.5993C35.543 87.5747 37.2879 87.426 39.2484 86.9778C41.2018 86.5316 42.833 85.9108 44.0997 85.3286C45.7245 86.1886 47.4189 86.9343 49.1729 87.5558C50.7612 88.1183 52.2505 88.5259 53.5959 88.8247C54.4729 90.1428 55.6687 91.7022 57.2655 93.2868C58.8018 94.8111 60.3101 95.9629 61.5944 96.8159C62.819 96.0408 64.2788 94.9703 65.7632 93.5183C67.4161 91.9014 68.6035 90.2957 69.4363 88.9819C70.5787 88.7525 71.7029 88.4712 72.806 88.1415C75.4834 87.3418 77.7788 86.331 79.6768 85.3279C81.0327 85.8624 82.7762 86.4124 84.8483 86.7449C86.5932 87.0247 88.1549 87.0837 89.4483 87.0486C89.9882 85.8435 90.5345 84.3578 90.932 82.6167C91.5632 79.8466 91.5913 77.4202 91.4642 75.63C92.2191 74.6992 92.9311 73.7319 93.596 72.7309C94.3164 71.6471 94.9295 70.6054 95.4512 69.6324C96.9321 69.2221 98.8869 68.5143 100.974 67.2503C102.687 66.2121 104.009 65.0897 104.979 64.1371C104.69 63.0555 104.256 61.7956 103.594 60.453C102.406 58.0476 100.939 56.3003 99.7794 55.1393L99.778 55.14ZM32.1325 66.3012C30.7247 65.78 29.4994 65.1816 28.4587 64.5903C28.4271 64.5727 28.312 64.5089 28.2902 64.4619C28.2881 64.4577 28.2867 64.4535 28.2867 64.4535C28.2818 64.4388 28.2825 64.4177 28.2895 64.3595C28.293 64.3279 28.2979 64.2935 28.3029 64.2557C28.404 63.5507 28.5507 62.6521 28.7649 61.6146C28.7649 61.6146 28.9917 60.4839 29.2655 59.466C30.0281 56.6335 31.0533 54.2962 31.5918 53.1415C31.1684 54.9492 30.8209 57.121 30.7429 59.5867C30.7029 60.8669 30.7408 62.0608 30.8258 63.153C31.6754 63.8544 32.6837 64.5924 33.8599 65.2988C35.9938 66.5796 38.016 67.3548 39.6556 67.8381C37.6586 67.7371 35.0276 67.3737 32.1318 66.3012H32.1325ZM59.9948 82.6293C58.6677 83.3308 57.4045 83.845 56.2698 84.2259C56.2361 84.2378 56.1118 84.2813 56.062 84.2659C56.057 84.2645 56.0528 84.263 56.0528 84.263C56.0388 84.2567 56.024 84.2427 55.9847 84.1985C55.9636 84.1747 55.9405 84.148 55.9166 84.1193C55.4581 83.5742 54.8844 82.8664 54.2531 82.0155C54.2531 82.0155 53.5601 81.0931 52.9829 80.2106C51.377 77.7555 50.3153 75.4343 49.8119 74.2643C50.8792 75.7837 52.2681 77.4903 54.0565 79.1907C54.9855 80.0739 55.9019 80.8406 56.774 81.5049C57.8637 81.3393 59.0862 81.0805 60.3972 80.6743C62.7754 79.9378 64.7008 78.9487 66.1543 78.0487C64.7486 79.4692 62.7242 81.1871 59.9934 82.6293H59.9948ZM74.301 43.4065C74.301 42.5655 75.0635 42.0295 75.6688 41.9334C75.8485 41.9047 76.0058 41.9166 76.1224 41.9348V41.9334H97.9699C99.3967 41.7903 100.425 42.6994 100.425 43.4065C100.425 44.1129 99.3974 45.0227 97.9699 44.8803H76.1224V44.8789C76.0051 44.8972 75.8478 44.9091 75.6688 44.8803C75.0635 44.7842 74.301 44.2483 74.301 43.4072V43.4065ZM87.6009 70.5577C87.4892 71.586 87.2961 72.7021 87.2961 72.7021C87.1241 73.7276 86.9401 74.6024 86.7835 75.2835C86.7751 75.3193 86.7674 75.353 86.7596 75.3831C86.7449 75.4392 86.7386 75.4582 86.7295 75.4701C86.7295 75.4701 86.7266 75.4736 86.7231 75.4771C86.6873 75.5129 86.5616 75.5304 86.5272 75.5353C85.3855 75.7079 84.0752 75.8222 82.628 75.8012C79.6515 75.7584 77.1616 75.16 75.3324 74.5449C76.9748 74.683 79.0624 74.6887 81.428 74.272C82.732 74.0419 83.8969 73.7234 84.9059 73.3818C85.3658 72.4117 85.8194 71.3328 86.2323 70.1466C87.0286 67.8619 87.4787 65.7512 87.7336 63.9463C87.8115 65.1935 87.9112 67.6964 87.6009 70.5591V70.5577Z" fill="#FFF4E5"/>
</svg>
